<svg xmlns="http://www.w3.org/2000/svg" viewBox="0 0 710.97 740.59"><defs><style>.cls-1,.cls-2{fill-rule:evenodd;}.cls-2{fill:#9791ff;}</style></defs><g id="katman_2" data-name="katman 2"><g id="katman_1-2" data-name="katman 1"><path class="cls-1" d="M455.72,1.69l-411,30.24C11.55,34.8,0,56.41,0,82.31V531.54C0,551.72,7.2,569,24.51,592L121.13,717.3c15.87,20.17,30.3,24.48,60.6,23l477.32-28.8c40.37-2.87,51.92-21.6,51.92-53.28V152.87c0-16.37-6.48-21.1-25.6-35.05l-3.27-2.38L550.9,23.29C519.17.26,506.19-2.64,455.72,1.69Z"/><path class="cls-2" d="M192.55,144.58c-39,2.63-47.82,3.23-70-14.74L66.32,85.21c-5.74-5.77-2.86-13,11.55-14.4L473,42c33.16-2.89,50.46,8.65,63.45,18.72l67.78,49c2.88,1.44,10.08,10.07,1.42,10.07L197.58,144.24Z"/><path class="cls-2" d="M147.1,653.94V224.88c0-18.72,5.77-27.36,23.06-28.82l468.68-27.35c15.9-1.44,23.1,8.65,23.1,27.35V622.25c0,18.73-2.9,34.59-28.86,36L184.59,684.2C158.63,685.62,147.1,677,147.1,653.94Z"/><path d="M338.27,520.51c-19.21,1.1-34.84,17.63-34.84,36.84a32.57,32.57,0,0,0,34.84,32.84c19.21-1.11,34.84-17.64,34.84-36.85A32.55,32.55,0,0,0,338.27,520.51Zm0,46.45A10.85,10.85,0,0,1,326.66,556a12.47,12.47,0,0,1,11.61-12.28,10.84,10.84,0,0,1,11.61,10.94A12.47,12.47,0,0,1,338.27,567ZM408,539.72A12.46,12.46,0,0,0,396.34,552,10.84,10.84,0,0,0,408,562.94a12.46,12.46,0,0,0,11.62-12.28A10.85,10.85,0,0,0,408,539.72Zm46.46,20.54a12.46,12.46,0,0,0-11.62,12.29,10.84,10.84,0,0,0,11.62,10.94A12.46,12.46,0,0,0,466,571.21,10.84,10.84,0,0,0,454.41,560.26Zm0-92.91c-19.21,1.11-34.84,17.65-34.84,36.85A32.56,32.56,0,0,0,454.41,537c19.21-1.11,34.84-17.64,34.84-36.86A32.57,32.57,0,0,0,454.41,467.35Zm0,46.46a10.86,10.86,0,0,1-11.62-10.95,12.48,12.48,0,0,1,11.62-12.28A10.85,10.85,0,0,1,466,501.52,12.48,12.48,0,0,1,454.41,513.81Zm46.45,20.55a12.46,12.46,0,0,0-11.61,12.28,10.84,10.84,0,0,0,11.61,11,12.45,12.45,0,0,0,11.61-12.29A10.84,10.84,0,0,0,500.86,534.36Zm0,0a12.46,12.46,0,0,0-11.61,12.28,10.84,10.84,0,0,0,11.61,11,12.45,12.45,0,0,0,11.61-12.29A10.84,10.84,0,0,0,500.86,534.36Zm-46.45-67c-19.21,1.11-34.84,17.65-34.84,36.85A32.56,32.56,0,0,0,454.41,537c19.21-1.11,34.84-17.64,34.84-36.86A32.57,32.57,0,0,0,454.41,467.35Zm0,46.46a10.86,10.86,0,0,1-11.62-10.95,12.48,12.48,0,0,1,11.62-12.28A10.85,10.85,0,0,1,466,501.52,12.48,12.48,0,0,1,454.41,513.81Zm0,46.45a12.46,12.46,0,0,0-11.62,12.29,10.84,10.84,0,0,0,11.62,10.94A12.46,12.46,0,0,0,466,571.21,10.84,10.84,0,0,0,454.41,560.26ZM408,539.72A12.46,12.46,0,0,0,396.34,552,10.84,10.84,0,0,0,408,562.94a12.46,12.46,0,0,0,11.62-12.28A10.85,10.85,0,0,0,408,539.72Zm-69.68-19.21c-19.21,1.1-34.84,17.63-34.84,36.84a32.57,32.57,0,0,0,34.84,32.84c19.21-1.11,34.84-17.64,34.84-36.85A32.55,32.55,0,0,0,338.27,520.51Zm0,46.45A10.85,10.85,0,0,1,326.66,556a12.47,12.47,0,0,1,11.61-12.28,10.84,10.84,0,0,1,11.61,10.94A12.47,12.47,0,0,1,338.27,567Zm243.1-33.58L466,358.78V302.54c19.21-1.1,34.84-17.63,34.84-36.85A32.57,32.57,0,0,0,466,232.86l-116.14,6.7C330.67,240.67,315,257.2,315,276.41a32.56,32.56,0,0,0,34.84,32.83v56.23L234.54,553.38c-24.63,40.12,3.13,89.06,49,86.42l248.85-14.35C578.25,622.8,606,570.66,581.37,533.38ZM371.29,373.85a12,12,0,0,0,1.82-6.33V307.9a12.47,12.47,0,0,0,11.62-12.28,10.84,10.84,0,0,0-11.62-10.94L349.89,286a10.87,10.87,0,0,1-11.62-10.95,12.48,12.48,0,0,1,11.62-12.29L466,256.09A10.85,10.85,0,0,1,477.63,267,12.47,12.47,0,0,1,466,279.32l-23.23,1.34a12.46,12.46,0,0,0-11.61,12.28,10.84,10.84,0,0,0,11.61,10.94V363.5a11.13,11.13,0,0,0,1.82,6.13l31.58,47.8c-27-4.23-55.78,2.53-79.76,19.9l-36.29,26.28a84.42,84.42,0,0,1-53.94,16.3ZM532.38,602.22,283.53,616.57c-27.52,1.59-44.17-27.78-29.39-51.85L292.67,502a102.72,102.72,0,0,0,22.49,1.18A109.56,109.56,0,0,0,373,482.19l36.29-26.28c26.68-19.32,60.94-21.76,88-6.47L561.77,547C576.55,569.35,559.9,600.64,532.38,602.22Zm-31.52-67.86a12.46,12.46,0,0,0-11.61,12.28,10.84,10.84,0,0,0,11.61,11,12.45,12.45,0,0,0,11.61-12.29A10.84,10.84,0,0,0,500.86,534.36Zm-46.45-67c-19.21,1.11-34.84,17.65-34.84,36.85A32.56,32.56,0,0,0,454.41,537c19.21-1.11,34.84-17.64,34.84-36.86A32.57,32.57,0,0,0,454.41,467.35Zm0,46.46a10.86,10.86,0,0,1-11.62-10.95,12.48,12.48,0,0,1,11.62-12.28A10.85,10.85,0,0,1,466,501.52,12.48,12.48,0,0,1,454.41,513.81Zm0,46.45a12.46,12.46,0,0,0-11.62,12.29,10.84,10.84,0,0,0,11.62,10.94A12.46,12.46,0,0,0,466,571.21,10.84,10.84,0,0,0,454.41,560.26ZM408,539.72A12.46,12.46,0,0,0,396.34,552,10.84,10.84,0,0,0,408,562.94a12.46,12.46,0,0,0,11.62-12.28A10.85,10.85,0,0,0,408,539.72Zm-69.68-19.21c-19.21,1.1-34.84,17.63-34.84,36.84a32.57,32.57,0,0,0,34.84,32.84c19.21-1.11,34.84-17.64,34.84-36.85A32.55,32.55,0,0,0,338.27,520.51Zm0,46.45A10.85,10.85,0,0,1,326.66,556a12.47,12.47,0,0,1,11.61-12.28,10.84,10.84,0,0,1,11.61,10.94A12.47,12.47,0,0,1,338.27,567Zm0-46.45c-19.21,1.1-34.84,17.63-34.84,36.84a32.57,32.57,0,0,0,34.84,32.84c19.21-1.11,34.84-17.64,34.84-36.85A32.55,32.55,0,0,0,338.27,520.51Zm0,46.45A10.85,10.85,0,0,1,326.66,556a12.47,12.47,0,0,1,11.61-12.28,10.84,10.84,0,0,1,11.61,10.94A12.47,12.47,0,0,1,338.27,567ZM408,539.72A12.46,12.46,0,0,0,396.34,552,10.84,10.84,0,0,0,408,562.94a12.46,12.46,0,0,0,11.62-12.28A10.85,10.85,0,0,0,408,539.72Zm46.46,20.54a12.46,12.46,0,0,0-11.62,12.29,10.84,10.84,0,0,0,11.62,10.94A12.46,12.46,0,0,0,466,571.21,10.84,10.84,0,0,0,454.41,560.26Zm0-92.91c-19.21,1.11-34.84,17.65-34.84,36.85A32.56,32.56,0,0,0,454.41,537c19.21-1.11,34.84-17.64,34.84-36.86A32.57,32.57,0,0,0,454.41,467.35Zm0,46.46a10.86,10.86,0,0,1-11.62-10.95,12.48,12.48,0,0,1,11.62-12.28A10.85,10.85,0,0,1,466,501.52,12.48,12.48,0,0,1,454.41,513.81Zm46.45,20.55a12.46,12.46,0,0,0-11.61,12.28,10.84,10.84,0,0,0,11.61,11,12.45,12.45,0,0,0,11.61-12.29A10.84,10.84,0,0,0,500.86,534.36Zm0,0a12.46,12.46,0,0,0-11.61,12.28,10.84,10.84,0,0,0,11.61,11,12.45,12.45,0,0,0,11.61-12.29A10.84,10.84,0,0,0,500.86,534.36Zm-46.45-67c-19.21,1.11-34.84,17.65-34.84,36.85A32.56,32.56,0,0,0,454.41,537c19.21-1.11,34.84-17.64,34.84-36.86A32.57,32.57,0,0,0,454.41,467.35Zm0,46.46a10.86,10.86,0,0,1-11.62-10.95,12.48,12.48,0,0,1,11.62-12.28A10.85,10.85,0,0,1,466,501.52,12.48,12.48,0,0,1,454.41,513.81Zm0,46.45a12.46,12.46,0,0,0-11.62,12.29,10.84,10.84,0,0,0,11.62,10.94A12.46,12.46,0,0,0,466,571.21,10.84,10.84,0,0,0,454.41,560.26ZM408,539.72A12.46,12.46,0,0,0,396.34,552,10.84,10.84,0,0,0,408,562.94a12.46,12.46,0,0,0,11.62-12.28A10.85,10.85,0,0,0,408,539.72Zm-69.68-19.21c-19.21,1.1-34.84,17.63-34.84,36.84a32.57,32.57,0,0,0,34.84,32.84c19.21-1.11,34.84-17.64,34.84-36.85A32.55,32.55,0,0,0,338.27,520.51Zm0,46.45A10.85,10.85,0,0,1,326.66,556a12.47,12.47,0,0,1,11.61-12.28,10.84,10.84,0,0,1,11.61,10.94A12.47,12.47,0,0,1,338.27,567Z"/></g></g></svg>